<svg version="1.1" baseProfile="full" width="904.0" height="880.3" viewbox="0 0 904 880.25" xmlns="http://www.w3.org/2000/svg" xmlns:xlink="http://www.w3.org/1999/xlink" xmlns:ev="http://www.w3.org/2001/xml-events">
	<title >filename</title>
	<desc >#direction: right
	#.box: fill=#C3FFB2
	#.blob: visual=roundrect
	#.terminal: visual=ellipse, fill=#FFCDCD, stroke=#FF8080
	#import: filename
	#arrowSize: 1
	#bendSize: 13#direction:  right
	#gutter: 10
	#edgeMargin: 1
	#gravity:3
	#edges: rounded
	#background: #d0d0d0
	#fill: #eee8d5; #fdf6e3
	#fillArrows: false
	#font: Fira Code
	#fontSize: 3
	#leading: 1
	#lineWidth: .4
	#padding: 8
	#spacing: 10
	#stroke: #33322E
	#title: filename
	#zoom: 2
	#acyclicer: greedy
	#ranker:  network-simplex
	
	[statement] &lt;:- [variable_declaration]
	[statement] &lt;:- [variable_reassignment]
	[statement] &lt;:- [function_declaration]
	[statement] &lt;:- [function_call]
	[statement] &lt;:- [structure]
	
	
	[variable_initialization] &lt;:- [variable_declaration]
	[variable_initialization] &lt;:- [expression]
	[variable_initialization] &lt;:- [structure]
	
	[variable_declaration] &lt;:- [declaration_mode]
	[variable_declaration] &lt;:- [type]
	[variable_declaration] &lt;:- [identifier]
	[variable_declaration] &lt;:- [tuple_declaration]
	
	[declaration_mode] &lt;:- [.terminal]
	[type] &lt;:- [.terminal]
	[identifier] &lt;:- [.terminal]
	
	[variable_reassignment] &lt;:- [identifier]
	[variable_reassignment] &lt;:- [expression]
	[variable_reassignment] &lt;:- [function_call]
	[variable_reassignment] &lt;:- [structure]
	
	[function_declaration] &lt;:- [identifier]
	[function_declaration] &lt;:- [parameter_list]
	[function_declaration] -choice-&gt; [local_block]
	[function_declaration] -choice-&gt; [return_value]
	
	[parameter_list] &lt;:- [parameter_definition]
	[parameter_list] &lt;:- [parameter_definition]
	
	[parameter_definition] &lt;:- [identifier]
	[parameter_definition] &lt;:- [literal]
	
	[structure] &lt;:- [if_structure]
	[structure] &lt;:- [for_structure]
	[structure] &lt;:- [while_structure]
	[structure] &lt;:- [switch_structure]
	
	[if_structure] &lt;:- [.terminal]
	[if_structure] &lt;:- [expression]
	[if_structure] &lt;:- [local_block]
	
	[for_structure] &lt;:- [.terminal]
	[for_structure] &lt;:- [name]
	[for_structure] &lt;:- [name]
	[for_structure] &lt;:- [.terminal]
	[for_structure] &lt;:- [.terminal]
	[for_structure] &lt;:- [expression]
	[for_structure] &lt;:- [local_block_loop]
	
	[while_structure] &lt;:- [expression]
	[while_structure] &lt;:- [local_block_loop]
	
	[local_block_loop] &lt;:- [statement]
	[local_block_loop] &lt;:- [.terminal]
	[local_block_loop] &lt;:- [return_value]
	
	[switch_structure] &lt;:- [variable_declaration]
	[switch_structure] &lt;:- [.terminal]
	[switch_structure] &lt;:- [expression]
	[switch_structure] -indent-&gt; [expression]
	[switch_structure] &lt;:- [block]
	[switch_structure] &lt;:- [.terminal]
	[switch_structure] &lt;:- [block]
	
	[tuple_declaration] &lt;:- [.terminal]
	[tuple_declaration] &lt;:- [identifier]
	[tuple_declaration] &lt;:- [identifier]
	
	[expression] &lt;:- [literal]
	[expression] &lt;:- [identifier]
	[expression] &lt;:- [function_call]
	
	[function_call] &lt;:- [identifier]
	[function_call] &lt;:- [expression]
	[function_call] &lt;:- [expression]
	
	[identifier] &lt;:- [.terminal]
	
	[arithmetic_operators] &lt;:- [.terminal]
	[comparison_operators] &lt;:- [.terminal]
	[logical_operators] &lt;:- [.terminal]
	
	[literal] &lt;:- [literal_int]
	[literal] &lt;:- [literal_float]
	[literal] &lt;:- [literal_bool]
	[literal] &lt;:- [literal_color]
	[literal] &lt;:- [literal_string]
	
	[literal_int] &lt;:- [.terminal]
	[literal_float] &lt;:- [.terminal]
	[literal_bool] &lt;:- [.terminal]
	[literal_color] &lt;:- [.terminal]
	[literal_string] &lt;:- [.terminal]
	
	[characters] &lt;:- [character]
	[characters] &lt;:- [escape_dq]
	[characters] &lt;:- [escape_sq]
	
	[character] &lt;:- [non_quote]
	[character] &lt;:- [escape_dq]
	[character] &lt;:- [escape_sq]
	
	[escape_dq] &lt;:- [.terminal]
	
	[escape_sq] &lt;:- [.terminal]
	
	[name] &lt;:- [.terminal]
	
	[built_in_type] &lt;:- [.terminal]
	
	[storage_type] -choice-&gt; [array_storage_type]
	[storage_type] -choice-&gt; [matrix_storage_type]
	[storage_type] &lt;:- [name]
	[storage_type] &lt;:- [built_in_type]
	
	[array_storage_type] &lt;:- [.terminal]
	[array_storage_type] &lt;:- [name]
	
	[matrix_storage_type] &lt;:- [.terminal]
	[matrix_storage_type] &lt;:- [name]
	[matrix_storage_type] &lt;:- [name]
	
	[assign] &lt;:- [.terminal]</desc>
	<g stroke-width="1.0" text-align="left" font="12pt Helvetica, Arial, sans-serif" font-size="3pt" font-family="Fira Code" font-weight="bold" font-style="normal">
		<g font-family="Fira Code" font-size="3pt" font-weight="bold" font-style="normal" stroke-width="0.4" stroke-linejoin="round" stroke-linecap="round" stroke="#33322E">
			<g stroke="transparent" fill="#d0d0d0">
				<rect x="0.0" y="0.0" height="880.3" width="904.0" stroke="none"></rect>
			</g>
			<g transform="translate(8, 8)" fill="#33322E">
				<g transform="translate(10, 10)" fill="#eee8d5" font-family="Fira Code" font-size="3pt" font-weight="normal" font-style="normal">
					<path d="M343.3 735.5 L361 697.5 L366 697.5 L366 697.5 L371 697.5 L371 697.5 L376 697.5 L376 697.5 L381 697.5 L381 697.5 L415 697.5 L415 697.5 L449 697.5 L449 697.5 L454 697.5 L454 697.5 L459 697.5 L459 697.5 L464 697.5 L464 697.5 L469 697.5 L469 697.5 L501.07547169811323 522.5 L501.1 522.5 " fill="none"></path>
					<path d="M342.1 734.9 L343.3 735.5 L344.5 736.0 L341.9 738.5 Z"></path>
					<path d="M333.5 762.7 L313 844.25 L308 844.25 L308 844.25 L303 844.25 L303 844.25 L298 844.25 L298 844.25 L293 844.25 L293 844.25 L262.5 844.25 L262.5 844.25 L232 844.25 L232 844.25 L227 844.25 L227 844.25 L222 844.25 L222 844.25 L217 844.25 L217 844.25 L212 844.25 L212 844.25 L183 844.25 L183 844.25 L154 844.25 L154 844.25 L149 844.25 L149 844.25 L144 844.25 L144 844.25 L139 844.25 L139 844.25 L134 844.25 L134 844.25 L111 844.25 L111 844.25 L88 844.25 L88 844.25 L83 844.25 L83 844.25 L78 844.25 L78 844.25 L73 844.25 L73 844.25 L68 844.25 L68 844.25 L50.6625 834.75 L50.7 834.8 " fill="none"></path>
					<path d="M334.8 763.1 L333.5 762.7 L332.2 762.4 L334.4 759.5 Z"></path>
					<path d="M359.3 753.4 L361 753.75 L366 753.75 L366 753.75 L371 753.75 L371 753.75 L376 753.75 L376 753.75 L381 753.75 L381 753.75 L386 753.75 L386.0 753.8 " fill="none"></path>
					<path d="M359.5 752.1 L359.3 753.4 L359.0 754.7 L356.0 752.8 Z"></path>
					<path d="M344.2 762.4 L361 793.75 L366 793.75 L366 793.75 L371 793.75 L371 793.75 L376 793.75 L376 793.75 L381 793.75 L381 793.75 L393.5 793.75 L393.5 793.8 " fill="none"></path>
					<path d="M345.4 761.8 L344.2 762.4 L343.0 763.1 L342.6 759.5 Z"></path>
					<path d="M314.7 749.0 L313 749 L308 749 L308 749 L303 749 L303 749 L298 749 L298 749 L293 749 L293 749 L262.5 749 L262.5 749 L232 749 L232 749 L227 749 L227 749 L222 749 L222 749 L217 749 L217 749 L212 749 L212 749 L183 749 L183 749 L154 749 L154 749 L149 749 L149 749 L144 749 L144 749 L139 749 L139 749 L134 749 L134 749 L111.88461538461539 486.5 L111.9 486.5 " fill="none"></path>
					<path d="M314.7 750.3 L314.7 749.0 L314.7 747.7 L318.0 749.0 Z"></path>
					<path d="M64.8 5.9 L68 5.5 L73 5.5 L73 5.5 L78 5.5 L78 5.5 L83 5.5 L83 5.5 L88 5.5 L88 5.5 L111 5.5 L111 5.5 L134 5.5 L134 5.5 L139 5.5 L139 5.5 L144 5.5 L144 5.5 L149 5.5 L149 5.5 L154 5.5 L154 5.5 L183 5.5 L183 5.5 L212 5.5 L212 5.5 L217 5.5 L217 5.5 L222 5.5 L222 5.5 L227 5.5 L227 5.5 L232 5.5 L232 5.5 L262.5 5.5 L262.5 5.5 L293 5.5 L293 5.5 L298 5.5 L298 5.5 L303 5.5 L303 5.5 L308 5.5 L308 5.5 L313 5.5 L313 5.5 L337 5.5 L337 5.5 L361 5.5 L361 5.5 L366 5.5 L366 5.5 L371 5.5 L371 5.5 L376 5.5 L376 5.5 L381 5.5 L381 5.5 L415 5.5 L415 5.5 L449 5.5 L449 5.5 L454 5.5 L454 5.5 L459 5.5 L459 5.5 L464 5.5 L464 5.5 L469 5.5 L469 5.5 L502.29516288252717 501.5 L502.3 501.5 " fill="none"></path>
					<path d="M64.6 4.6 L64.8 5.9 L65.0 7.3 L61.5 6.4 Z"></path>
					<path d="M64.8 15.1 L68 15.5 L73 15.5 L73 15.5 L78 15.5 L78 15.5 L83 15.5 L83 15.5 L88 15.5 L88 15.5 L111 15.5 L111 15.5 L134 15.5 L134 15.5 L139 15.5 L139 15.5 L144 15.5 L144 15.5 L149 15.5 L149 15.5 L154 15.5 L154 15.5 L183 15.5 L183 15.5 L212 15.5 L212 15.5 L217 15.5 L217 15.5 L222 15.5 L222 15.5 L227 15.5 L227 15.5 L232 15.5 L232 15.5 L262.5 15.5 L262.5 15.5 L293 15.5 L293 15.5 L298 15.5 L298 15.5 L303 15.5 L303 15.5 L308 15.5 L308 15.5 L313 15.5 L313 15.5 L337 15.5 L337 15.5 L361 15.5 L361 15.5 L366 15.5 L366 15.5 L371 15.5 L371 15.5 L376 15.5 L376 15.5 L381 15.5 L381 15.5 L415 15.5 L415 15.5 L449 15.5 L449 15.5 L454 15.5 L454 15.5 L459 15.5 L459 15.5 L464 15.5 L464 15.5 L469 15.5 L469 15.5 L502.37750653879687 578.5 L502.4 578.5 " fill="none"></path>
					<path d="M65.0 13.7 L64.8 15.1 L64.6 16.4 L61.5 14.6 Z"></path>
					<path d="M60.1 22.3 L68 25.5 L73 25.5 L73 25.5 L78 25.5 L78 25.5 L83 25.5 L83 25.5 L88 25.5 L88 25.5 L110.46392896781354 465.5 L110.5 465.5 " fill="none"></path>
					<path d="M60.6 21.0 L60.1 22.3 L59.6 23.5 L57.0 21.0 Z"></path>
					<path d="M515.2 499.1 L537 476 L542 476 L542 476 L547 476 L547 476 L552 476 L552 476 L557 476 L557 476 L591.5 476 L591.5 476 L626 476 L626 476 L631 476 L631 476 L636 476 L636 476 L641 476 L641 476 L646 476 L646 476 L680.5 476 L680.5 476 L715 476 L715 476 L720 476 L720 476 L725 476 L725 476 L730 476 L730 476 L735 476 L735 476 L744.5 476 L744.5 476.0 " fill="none"></path>
					<path d="M514.2 498.2 L515.2 499.1 L516.2 500.0 L512.9 501.5 Z"></path>
					<path d="M535.3 507.3 L537 507 L542 507 L542 507 L547 507 L547 507 L552 507 L552 507 L557 507 L557 507 L591.5 507 L591.5 507 L626 507 L626 507 L631 507 L631 507 L636 507 L636 507 L641 507 L641 507 L646 507 L646 507 L680.5 507 L680.5 507 L715 507 L715 507 L720 507 L720 507 L725 507 L725 507 L730 507 L730 507 L735 507 L735 507 L758 507 L758.0 507.0 " fill="none"></path>
					<path d="M535.1 505.9 L535.3 507.3 L535.5 508.6 L532.0 507.7 Z"></path>
					<path d="M535.3 517.0 L537 517.25 L542 517.25 L542 517.25 L547 517.25 L547 517.25 L552 517.25 L552 517.25 L557 517.25 L557 517.25 L591.5 517.25 L591.5 517.25 L626 517.25 L626 517.25 L631 517.25 L631 517.25 L636 517.25 L636 517.25 L641 517.25 L641 517.25 L646 517.25 L646 517.25 L668.719512195122 537.5 L668.7 537.5 " fill="none"></path>
					<path d="M535.5 515.7 L535.3 517.0 L535.1 518.3 L532.0 516.5 Z"></path>
					<path d="M517.1 524.7 L537 542.75 L542 542.75 L542 542.75 L547 542.75 L547 542.75 L552 542.75 L552 542.75 L557 542.75 L557 542.75 L565.5 542.75 L565.5 542.8 " fill="none"></path>
					<path d="M518.0 523.7 L517.1 524.7 L516.2 525.7 L514.6 522.5 Z"></path>
					<path d="M801.8 476.0 L808 476 L813 476 L813 476 L818 476 L818 476 L823 476 L823 476 L828 476 L828 476 L847.7766570605187 399.75 L847.8 399.8 " fill="none"></path>
					<path d="M801.8 474.7 L801.8 476.0 L801.8 477.3 L798.5 476.0 Z"></path>
					<path d="M788.3 507.0 L808 507 L813 507 L813 507 L818 507 L818 507 L823 507 L823 507 L828 507 L828 507 L848.4936305732484 399.75 L848.5 399.8 " fill="none"></path>
					<path d="M788.3 505.7 L788.3 507.0 L788.3 508.3 L785.0 507.0 Z"></path>
					<path d="M701.3 544.8 L715 542.75 L720 542.75 L720 542.75 L725 542.75 L725 542.75 L730 542.75 L730 542.75 L735 542.75 L735 542.75 L771.5 542.75 L771.5 542.75 L808 542.75 L808 542.75 L813 542.75 L813 542.75 L818 542.75 L818 542.75 L823 542.75 L823 542.75 L828 542.75 L828 542.75 L848.9609120521172 399.75 L849.0 399.8 " fill="none"></path>
					<path d="M701.1 543.5 L701.3 544.8 L701.5 546.2 L698.0 545.3 Z"></path>
					<path d="M32.1 810.4 L68 35.5 L73 35.5 L73 35.5 L78 35.5 L78 35.5 L83 35.5 L83 35.5 L88 35.5 L88 35.5 L111 35.5 L111 35.5 L134 35.5 L134 35.5 L139 35.5 L139 35.5 L144 35.5 L144 35.5 L149 35.5 L149 35.5 L154 35.5 L154 35.5 L183 35.5 L183 35.5 L212 35.5 L212 35.5 L217 35.5 L217 35.5 L222 35.5 L222 35.5 L227 35.5 L227 35.5 L232 35.5 L232 35.5 L262.5 35.5 L262.5 35.5 L293 35.5 L293 35.5 L298 35.5 L298 35.5 L303 35.5 L303 35.5 L308 35.5 L308 35.5 L313 35.5 L313 35.5 L337 35.5 L337 35.5 L361 35.5 L361 35.5 L366 35.5 L366 35.5 L371 35.5 L371 35.5 L376 35.5 L376 35.5 L381 35.5 L381 35.5 L415 35.5 L415 35.5 L449 35.5 L449 35.5 L454 35.5 L454 35.5 L459 35.5 L459 35.5 L464 35.5 L464 35.5 L469 35.5 L469 35.5 L503 35.5 L503 35.5 L537 35.5 L537 35.5 L542 35.5 L542 35.5 L547 35.5 L547 35.5 L552 35.5 L552 35.5 L557 35.5 L557 35.5 L591.5 35.5 L591.5 35.5 L626 35.5 L626 35.5 L631 35.5 L631 35.5 L636 35.5 L636 35.5 L641 35.5 L641 35.5 L646 35.5 L646 35.5 L679.7931707317073 537.5 L679.8 537.5 " fill="none"></path>
					<path d="M30.8 810.4 L32.1 810.4 L33.5 810.5 L32.0 813.8 Z"></path>
					<path d="M66.2 814.7 L68 814.25 L73 814.25 L73 814.25 L78 814.25 L78 814.25 L83 814.25 L83 814.25 L88 814.25 L88 814.25 L111 814.25 L111 814.25 L134 814.25 L134 814.25 L139 814.25 L139 814.25 L144 814.25 L144 814.25 L149 814.25 L149 814.25 L154 814.25 L154 814.25 L183 814.25 L183 814.25 L212 814.25 L212 814.25 L217 814.25 L217 814.25 L222 814.25 L222 814.25 L227 814.25 L227 814.25 L232 814.25 L232 814.25 L262.5 814.25 L262.5 814.25 L293 814.25 L293 814.25 L298 814.25 L298 814.25 L303 814.25 L303 814.25 L308 814.25 L308 814.25 L313 814.25 L313 814.25 L337 814.25 L337 814.25 L361 814.25 L361 814.25 L366 814.25 L366 814.25 L371 814.25 L371 814.25 L376 814.25 L376 814.25 L381 814.25 L381 814.25 L415 814.25 L415 814.25 L449 814.25 L449 814.25 L454 814.25 L454 814.25 L459 814.25 L459 814.25 L464 814.25 L464 814.25 L469 814.25 L469 814.25 L501.41509433962267 599.5 L501.4 599.5 " fill="none"></path>
					<path d="M65.9 813.5 L66.2 814.7 L66.6 816.0 L63.0 815.6 Z"></path>
					<path d="M66.3 824.3 L68 824.25 L73 824.25 L73 824.25 L78 824.25 L78 824.25 L83 824.25 L83 824.25 L88 824.25 L88 824.25 L111 824.25 L111 824.25 L134 824.25 L134 824.25 L139 824.25 L139 824.25 L144 824.25 L144 824.25 L149 824.25 L149 824.25 L154 824.25 L154 824.25 L183 824.25 L183 824.25 L212 824.25 L212 824.25 L217 824.25 L217 824.25 L222 824.25 L222 824.25 L227 824.25 L227 824.25 L232 824.25 L232 824.25 L262.5 824.25 L262.5 824.25 L293 824.25 L293 824.25 L298 824.25 L298 824.25 L303 824.25 L303 824.25 L308 824.25 L308 824.25 L313 824.25 L313 824.25 L337 824.25 L337 824.25 L361 824.25 L361 824.25 L366 824.25 L366 824.25 L371 824.25 L371 824.25 L376 824.25 L376 824.25 L381 824.25 L381 824.25 L403.2950819672131 804.25 L403.3 804.3 " fill="none"></path>
					<path d="M66.3 822.9 L66.3 824.3 L66.3 825.6 L63.0 824.3 Z"></path>
					<path d="M66.2 833.8 L68 834.25 L73 834.25 L73 834.25 L78 834.25 L78 834.25 L83 834.25 L83 834.25 L88 834.25 L88 834.25 L110.32588974180042 486.5 L110.3 486.5 " fill="none"></path>
					<path d="M66.6 832.5 L66.2 833.8 L65.9 835.0 L63.0 832.9 Z"></path>
					<path d="M424.7 740.6 L449 707.5 L454 707.5 L454 707.5 L459 707.5 L459 707.5 L464 707.5 L464 707.5 L469 707.5 L469 707.5 L503 707.5 L503 707.5 L537 707.5 L537 707.5 L542 707.5 L542 707.5 L547 707.5 L547 707.5 L552 707.5 L552 707.5 L557 707.5 L557 707.5 L591.5 707.5 L591.5 707.5 L626 707.5 L626 707.5 L631 707.5 L631 707.5 L636 707.5 L636 707.5 L641 707.5 L641 707.5 L646 707.5 L646 707.5 L678.2288401253918 558.5 L678.2 558.5 " fill="none"></path>
					<path d="M423.6 739.8 L424.7 740.6 L425.8 741.4 L422.7 743.3 Z"></path>
					<path d="M447.2 744.5 L449 744 L454 744 L454 744 L459 744 L459 744 L464 744 L464 744 L469 744 L469 744 L480 744 L480.0 744.0 " fill="none"></path>
					<path d="M446.8 743.2 L447.2 744.5 L447.6 745.8 L444.0 745.4 Z"></path>
					<text x="509.3" y="569.5" stroke="none">choice-&gt;</text>
					<path d="M444.0 754.0 L449 754 L454 754 L454 754 L459 754 L459 754 L464 754 L464 754 L469 754 L469 754 L501.2669902912621 558.5 L501.3 558.5 " fill="none"></path>
					<text x="508.5" y="641.5" stroke="none">choice-&gt;</text>
					<path d="M444.0 762.5 L449 764 L454 764 L454 764 L459 764 L459 764 L464 764 L464 764 L469 764 L469 764 L500.5208333333333 630.5 L500.5 630.5 " fill="none"></path>
					<path d="M522.6 731.7 L537 722.75 L542 722.75 L542 722.75 L547 722.75 L547 722.75 L552 722.75 L552 722.75 L557 722.75 L557 722.75 L574.4529411764706 733.5 L574.5 733.5 " fill="none"></path>
					<path d="M521.9 730.6 L522.6 731.7 L523.3 732.9 L519.8 733.5 Z"></path>
					<path d="M529.2 751.7 L537 754 L542 754 L542 754 L547 754 L547 754 L552 754 L552 754 L557 754 L557 754 L562 752.5507246376811 L562.0 752.6 " fill="none"></path>
					<path d="M529.6 750.4 L529.2 751.7 L528.8 753.0 L526.0 750.8 Z"></path>
					<path d="M611.4 731.8 L626 722.75 L631 722.75 L631 722.75 L636 722.75 L636 722.75 L641 722.75 L641 722.75 L646 722.75 L646 722.75 L678.4270386266095 558.5 L678.4 558.5 " fill="none"></path>
					<path d="M610.7 730.6 L611.4 731.8 L612.1 732.9 L608.5 733.5 Z"></path>
					<path d="M624.2 753.5 L626 754 L631 754 L631 754 L636 754 L636 754 L641 754 L641 754 L646 754 L646 754 L666 754 L666.0 754.0 " fill="none"></path>
					<path d="M624.6 752.2 L624.2 753.5 L623.8 754.8 L621.0 752.6 Z"></path>
					<path d="M111.8 462.2 L134 56.5 L139 56.5 L139 56.5 L144 56.5 L144 56.5 L149 56.5 L149 56.5 L154 56.5 L154 56.5 L183 56.5 L183 56.5 L212 56.5 L212 56.5 L217 56.5 L217 56.5 L222 56.5 L222 56.5 L227 56.5 L227 56.5 L232 56.5 L232 56.5 L262.5 56.5 L262.5 56.5 L293 56.5 L293 56.5 L298 56.5 L298 56.5 L303 56.5 L303 56.5 L308 56.5 L308 56.5 L313 56.5 L313 56.5 L337 56.5 L337 56.5 L361 56.5 L361 56.5 L366 56.5 L366 56.5 L371 56.5 L371 56.5 L376 56.5 L376 56.5 L381 56.5 L381 56.5 L395 56.5 L395.0 56.5 " fill="none"></path>
					<path d="M110.4 462.1 L111.8 462.2 L113.1 462.2 L111.6 465.5 Z"></path>
					<path d="M114.3 462.3 L134 380.25 L139 380.25 L139 380.25 L144 380.25 L144 380.25 L149 380.25 L149 380.25 L154 380.25 L154 380.25 L161.5 380.25 L161.5 380.3 " fill="none"></path>
					<path d="M113.0 461.9 L114.3 462.3 L115.6 462.6 L113.5 465.5 Z"></path>
					<path d="M132.3 471.8 L134 471.5 L139 471.5 L139 471.5 L144 471.5 L144 471.5 L149 471.5 L149 471.5 L154 471.5 L154 471.5 L159 471.5 L159.0 471.5 " fill="none"></path>
					<path d="M132.0 470.5 L132.3 471.8 L132.5 473.1 L129.0 472.5 Z"></path>
					<path d="M113.8 489.8 L134 589 L139 589 L139 589 L144 589 L144 589 L149 589 L149 589 L154 589 L154 589 L183 589 L183 589 L212 589 L212 589 L217 589 L217 589 L222 589 L222 589 L227 589 L227 589 L232 589 L232 589 L262.5 589 L262.5 589 L293 589 L293 589 L298 589 L298 589 L303 589 L303 589 L308 589 L308 589 L313 589 L313 589 L337 589 L337 589 L361 589 L361 589 L366 589 L366 589 L371 589 L371 589 L376 589 L376 589 L381 589 L381 589 L390 589 L390.0 589.0 " fill="none"></path>
					<path d="M115.1 489.5 L113.8 489.8 L112.5 490.0 L113.1 486.5 Z"></path>
					<path d="M438.2 49.0 L449 45.5 L454 45.5 L454 45.5 L459 45.5 L459 45.5 L464 45.5 L464 45.5 L469 45.5 L469 45.5 L503 45.5 L503 45.5 L537 45.5 L537 45.5 L542 45.5 L542 45.5 L547 45.5 L547 45.5 L552 45.5 L552 45.5 L557 45.5 L557 45.5 L591.5 45.5 L591.5 45.5 L626 45.5 L626 45.5 L631 45.5 L631 45.5 L636 45.5 L636 45.5 L641 45.5 L641 45.5 L646 45.5 L646 45.5 L680.5 45.5 L680.5 45.5 L715 45.5 L715 45.5 L720 45.5 L720 45.5 L725 45.5 L725 45.5 L730 45.5 L730 45.5 L735 45.5 L735 45.5 L771.5 45.5 L771.5 45.5 L808 45.5 L808 45.5 L813 45.5 L813 45.5 L818 45.5 L818 45.5 L823 45.5 L823 45.5 L828 45.5 L828 45.5 L849.8127272727273 378.75 L849.8 378.8 " fill="none"></path>
					<path d="M437.8 47.7 L438.2 49.0 L438.6 50.3 L435.0 50.0 Z"></path>
					<path d="M418.4 70.2 L449 194.5 L454 194.5 L454 194.5 L459 194.5 L459 194.5 L464 194.5 L464 194.5 L469 194.5 L469 194.5 L502.09505703422053 578.5 L502.1 578.5 " fill="none"></path>
					<path d="M419.7 69.9 L418.4 70.2 L417.1 70.6 L417.6 67.0 Z"></path>
					<path d="M418.2 70.2 L449 204.75 L454 204.75 L454 204.75 L459 204.75 L459 204.75 L464 204.75 L464 204.75 L469 204.75 L469 204.75 L501.95994173343047 537.5 L502.0 537.5 " fill="none"></path>
					<path d="M419.5 70.0 L418.2 70.2 L416.9 70.5 L417.4 67.0 Z"></path>
					<path d="M197.1 367.5 L212 354 L217 354 L217 354 L222 354 L222 354 L227 354 L227 354 L232 354 L232 354 L262.5 354 L262.5 354 L293 354 L293 354 L298 354 L298 354 L303 354 L303 354 L308 354 L308 354 L313 354 L313 354 L337 354 L337 354 L361 354 L361 354 L366 354 L366 354 L371 354 L371 354 L376 354 L376 354 L381 354 L381 354 L415 354 L415 354 L449 354 L449 354 L454 354 L454 354 L459 354 L459 354 L464 354 L464 354 L469 354 L469 354 L503 354 L503 354 L537 354 L537 354 L542 354 L542 354 L547 354 L547 354 L552 354 L552 354 L557 354 L557 354 L591.5 354 L591.5 354 L626 354 L626 354 L631 354 L631 354 L636 354 L636 354 L641 354 L641 354 L646 354 L646 354 L680.5 354 L680.5 354 L715 354 L715 354 L720 354 L720 354 L725 354 L725 354 L730 354 L730 354 L735 354 L735 354 L771.5 354 L771.5 354 L808 354 L808 354 L813 354 L813 354 L818 354 L818 354 L823 354 L823 354 L828 354 L828 354 L843.7978723404256 378.75 L843.8 378.8 " fill="none"></path>
					<path d="M196.2 366.5 L197.1 367.5 L198.0 368.5 L194.6 369.8 Z"></path>
					<path d="M204.6 368.1 L212 364 L217 364 L217 364 L222 364 L222 364 L227 364 L227 364 L232 364 L232 364 L262.5 364 L262.5 364 L293 364 L293 364 L298 364 L298 364 L303 364 L303 364 L308 364 L308 364 L313 364 L313 364 L337 364 L337 364 L361 364 L361 364 L366 364 L366 364 L371 364 L371 364 L376 364 L376 364 L381 364 L381 364 L415 364 L415 364 L449 364 L449 364 L454 364 L454 364 L459 364 L459 364 L464 364 L464 364 L469 364 L469 364 L503 364 L503 364 L537 364 L537 364 L542 364 L542 364 L547 364 L547 364 L552 364 L552 364 L557 364 L557 364 L591.5 364 L591.5 364 L626 364 L626 364 L631 364 L631 364 L636 364 L636 364 L641 364 L641 364 L646 364 L646 364 L680.5 364 L680.5 364 L715 364 L715 364 L720 364 L720 364 L725 364 L725 364 L730 364 L730 364 L735 364 L735 364 L765.2682926829268 313 L765.3 313.0 " fill="none"></path>
					<path d="M204.0 367.0 L204.6 368.1 L205.3 369.3 L201.7 369.8 Z"></path>
					<path d="M207.8 374.9 L212 374 L217 374 L217 374 L222 374 L222 374 L227 374 L227 374 L232 374 L232 374 L262.5 374 L262.5 374 L293 374 L293 374 L298 374 L298 374 L303 374 L303 374 L308 374 L308 374 L313 374 L313 374 L337 374 L337 374 L361 374 L361 374 L366 374 L366 374 L371 374 L371 374 L376 374 L376 374 L381 374 L381 374 L415 374 L415 374 L449 374 L449 374 L454 374 L454 374 L459 374 L459 374 L464 374 L464 374 L469 374 L469 374 L503 374 L503 374 L537 374 L537 374 L542 374 L542 374 L547 374 L547 374 L552 374 L552 374 L557 374 L557 374 L591.5 374 L591.5 374 L626 374 L626 374 L631 374 L631 374 L636 374 L636 374 L641 374 L641 374 L646 374 L646 374 L680.5 374 L680.5 374 L715 374 L715 374 L720 374 L720 374 L725 374 L725 374 L730 374 L730 374 L735 374 L735 374 L766.1398601398602 313 L766.1 313.0 " fill="none"></path>
					<path d="M207.5 373.6 L207.8 374.9 L208.0 376.2 L204.5 375.6 Z"></path>
					<path d="M207.8 383.5 L212 384 L217 384 L217 384 L222 384 L222 384 L227 384 L227 384 L232 384 L232 384 L262.5 384 L262.5 384 L293 384 L293 384 L298 384 L298 384 L303 384 L303 384 L308 384 L308 384 L313 384 L313 384 L337 384 L337 384 L361 384 L361 384 L366 384 L366 384 L371 384 L371 384 L376 384 L376 384 L381 384 L381 384 L415 384 L415 384 L449 384 L449 384 L454 384 L454 384 L459 384 L459 384 L464 384 L464 384 L469 384 L469 384 L503 384 L503 384 L537 384 L537 384 L542 384 L542 384 L547 384 L547 384 L552 384 L552 384 L557 384 L557 384 L591.5 384 L591.5 384 L626 384 L626 384 L631 384 L631 384 L636 384 L636 384 L641 384 L641 384 L646 384 L646 384 L680.5 384 L680.5 384 L715 384 L715 384 L720 384 L720 384 L725 384 L725 384 L730 384 L730 384 L735 384 L735 384 L771.5 384 L771.5 384 L808 384 L808 384 L813 384 L813 384 L818 384 L818 384 L823 384 L823 384 L828 384 L828 384 L833 385.1666666666667 L833.0 385.2 " fill="none"></path>
					<path d="M208.0 382.1 L207.8 383.5 L207.6 384.8 L204.5 383.0 Z"></path>
					<path d="M207.5 391.9 L212 394 L217 394 L217 394 L222 394 L222 394 L227 394 L227 394 L232 394 L232 394 L262.5 394 L262.5 394 L293 394 L293 394 L298 394 L298 394 L303 394 L303 394 L308 394 L308 394 L313 394 L313 394 L337 394 L337 394 L361 394 L361 394 L366 394 L366 394 L371 394 L371 394 L376 394 L376 394 L381 394 L381 394 L415 394 L415 394 L449 394 L449 394 L454 394 L454 394 L459 394 L459 394 L464 394 L464 394 L469 394 L469 394 L503 394 L503 394 L537 394 L537 394 L542 394 L542 394 L547 394 L547 394 L552 394 L552 394 L557 394 L557 394 L591.5 394 L591.5 394 L626 394 L626 394 L631 394 L631 394 L636 394 L636 394 L641 394 L641 394 L646 394 L646 394 L680.5 394 L680.5 394 L715 394 L715 394 L720 394 L720 394 L725 394 L725 394 L730 394 L730 394 L735 394 L735 394 L771.5 394 L771.5 394 L808 394 L808 394 L813 394 L813 394 L818 394 L818 394 L823 394 L823 394 L828 394 L828 394 L833 392.94444444444446 L833.0 392.9 " fill="none"></path>
					<path d="M208.1 390.7 L207.5 391.9 L206.9 393.1 L204.5 390.4 Z"></path>
					<path d="M198.4 392.9 L212 404 L217 404 L217 404 L222 404 L222 404 L227 404 L227 404 L232 404 L232 404 L262.5 404 L262.5 404 L293 404 L293 404 L298 404 L298 404 L303 404 L303 404 L308 404 L308 404 L313 404 L313 404 L337 404 L337 404 L361 404 L361 404 L366 404 L366 404 L371 404 L371 404 L376 404 L376 404 L381 404 L381 404 L415 404 L415 404 L449 404 L449 404 L454 404 L454 404 L459 404 L459 404 L464 404 L464 404 L469 404 L469 404 L501.07027027027027 578.5 L501.1 578.5 " fill="none"></path>
					<path d="M199.2 391.8 L198.4 392.9 L197.6 393.9 L195.8 390.8 Z"></path>
					<path d="M191.7 393.5 L212 424.5 L217 424.5 L217 424.5 L222 424.5 L222 424.5 L227 424.5 L227 424.5 L232 424.5 L232 424.5 L237 424.5 L237.0 424.5 " fill="none"></path>
					<path d="M192.8 392.8 L191.7 393.5 L190.6 394.3 L189.9 390.8 Z"></path>
					<path d="M210.3 466.8 L212 466.5 L217 466.5 L217 466.5 L222 466.5 L222 466.5 L227 466.5 L227 466.5 L232 466.5 L232 466.5 L262.5 466.5 L262.5 466.5 L293 466.5 L293 466.5 L298 466.5 L298 466.5 L303 466.5 L303 466.5 L308 466.5 L308 466.5 L313 466.5 L313 466.5 L337 466.5 L337 466.5 L361 466.5 L361 466.5 L366 466.5 L366 466.5 L371 466.5 L371 466.5 L376 466.5 L376 466.5 L381 466.5 L381 466.5 L415 466.5 L415 466.5 L449 466.5 L449 466.5 L454 466.5 L454 466.5 L459 466.5 L459 466.5 L464 466.5 L464 466.5 L469 466.5 L469 466.5 L500.0857142857143 578.5 L500.1 578.5 " fill="none"></path>
					<path d="M210.1 465.5 L210.3 466.8 L210.5 468.1 L207.0 467.4 Z"></path>
					<path d="M210.3 476.4 L212 476.75 L217 476.75 L217 476.75 L222 476.75 L222 476.75 L227 476.75 L227 476.75 L232 476.75 L232 476.75 L256.3708133971292 435 L256.4 435.0 " fill="none"></path>
					<path d="M210.5 475.1 L210.3 476.4 L210.0 477.8 L207.0 475.8 Z"></path>
					<path d="M291.2 414.9 L293 414.25 L298 414.25 L298 414.25 L303 414.25 L303 414.25 L308 414.25 L308 414.25 L313 414.25 L313 414.25 L336.2471994025392 738.5 L336.2 738.5 " fill="none"></path>
					<path d="M290.7 413.6 L291.2 414.9 L291.6 416.1 L288.0 415.9 Z"></path>
					<path d="M291.3 424.5 L293 424.5 L298 424.5 L298 424.5 L303 424.5 L303 424.5 L308 424.5 L308 424.5 L313 424.5 L313 424.5 L337 424.5 L337 424.5 L361 424.5 L361 424.5 L366 424.5 L366 424.5 L371 424.5 L371 424.5 L376 424.5 L376 424.5 L381 424.5 L381 424.5 L415 424.5 L415 424.5 L449 424.5 L449 424.5 L454 424.5 L454 424.5 L459 424.5 L459 424.5 L464 424.5 L464 424.5 L469 424.5 L469 424.5 L503 424.5 L503 424.5 L537 424.5 L537 424.5 L542 424.5 L542 424.5 L547 424.5 L547 424.5 L552 424.5 L552 424.5 L557 424.5 L557 424.5 L591.5 424.5 L591.5 424.5 L626 424.5 L626 424.5 L631 424.5 L631 424.5 L636 424.5 L636 424.5 L641 424.5 L641 424.5 L646 424.5 L646 424.5 L680.5 424.5 L680.5 424.5 L715 424.5 L715 424.5 L720 424.5 L720 424.5 L725 424.5 L725 424.5 L730 424.5 L730 424.5 L735 424.5 L735 424.5 L771.5 424.5 L771.5 424.5 L808 424.5 L808 424.5 L813 424.5 L813 424.5 L818 424.5 L818 424.5 L823 424.5 L823 424.5 L828 424.5 L828 424.5 L843.7978723404256 399.75 L843.8 399.8 " fill="none"></path>
					<path d="M291.3 423.2 L291.3 424.5 L291.3 425.8 L288.0 424.5 Z"></path>
					<path d="M274.9 437.4 L293 456.25 L298 456.25 L298 456.25 L303 456.25 L303 456.25 L308 456.25 L308 456.25 L313 456.25 L313 456.25 L337 456.25 L337 456.25 L361 456.25 L361 456.25 L366 456.25 L366 456.25 L371 456.25 L371 456.25 L376 456.25 L376 456.25 L381 456.25 L381 456.25 L415 456.25 L415 456.25 L449 456.25 L449 456.25 L454 456.25 L454 456.25 L459 456.25 L459 456.25 L464 456.25 L464 456.25 L469 456.25 L469 456.25 L500.8198473282443 609.5 L500.8 609.5 " fill="none"></path>
					<path d="M275.9 436.5 L274.9 437.4 L273.9 438.3 L272.6 435.0 Z"></path>
					<path d="M421.0 575.5 L449 512 L454 512 L454 512 L459 512 L459 512 L464 512 L464 512 L469 512 L469 512 L474 512 L474.0 512.0 " fill="none"></path>
					<path d="M419.8 574.9 L421.0 575.5 L422.2 576.0 L419.6 578.5 Z"></path>
					<path d="M435.3 576.8 L449 568.5 L454 568.5 L454 568.5 L459 568.5 L459 568.5 L464 568.5 L464 568.5 L469 568.5 L469 568.5 L503 568.5 L503 568.5 L537 568.5 L537 568.5 L542 568.5 L542 568.5 L547 568.5 L547 568.5 L552 568.5 L552 568.5 L557 568.5 L557 568.5 L591.5 568.5 L591.5 568.5 L626 568.5 L626 568.5 L631 568.5 L631 568.5 L636 568.5 L636 568.5 L641 568.5 L641 568.5 L646 568.5 L646 568.5 L680.5 568.5 L680.5 568.5 L715 568.5 L715 568.5 L720 568.5 L720 568.5 L725 568.5 L725 568.5 L730 568.5 L730 568.5 L735 568.5 L735 568.5 L771.5 568.5 L771.5 568.5 L808 568.5 L808 568.5 L813 568.5 L813 568.5 L818 568.5 L818 568.5 L823 568.5 L823 568.5 L828 568.5 L828 568.5 L849.1820083682009 399.75 L849.2 399.8 " fill="none"></path>
					<path d="M434.6 575.6 L435.3 576.8 L436.0 577.9 L432.4 578.5 Z"></path>
					<path d="M443.3 584.6 L449 583.75 L454 583.75 L454 583.75 L459 583.75 L459 583.75 L464 583.75 L464 583.75 L469 583.75 L469 583.75 L483 585.9117647058823 L483.0 585.9 " fill="none"></path>
					<path d="M443.1 583.3 L443.3 584.6 L443.5 585.9 L440.0 585.1 Z"></path>
					<text x="497.3" y="610.5" stroke="none">indent-&gt;</text>
					<path d="M428.7 599.5 L449 615 L454 615 L454 615 L459 615 L459 615 L464 615 L464 615 L469 615 L469 615 L489.2692307692308 599.5 L489.3 599.5 " fill="none"></path>
					<path d="M422.4 602.4 L449 651 L454 651 L454 651 L459 651 L459 651 L464 651 L464 651 L469 651 L469 651 L488.5 651 L488.5 651.0 " fill="none"></path>
					<path d="M423.5 601.8 L422.4 602.4 L421.2 603.1 L420.8 599.5 Z"></path>
					<path d="M420.6 602.6 L449 671.5 L454 671.5 L454 671.5 L459 671.5 L459 671.5 L464 671.5 L464 671.5 L469 671.5 L469 671.5 L503 671.5 L503 671.5 L537 671.5 L537 671.5 L542 671.5 L542 671.5 L547 671.5 L547 671.5 L552 671.5 L552 671.5 L557 671.5 L557 671.5 L591.5 671.5 L591.5 671.5 L626 671.5 L626 671.5 L631 671.5 L631 671.5 L636 671.5 L636 671.5 L641 671.5 L641 671.5 L646 671.5 L646 671.5 L680.5 671.5 L680.5 671.5 L715 671.5 L715 671.5 L720 671.5 L720 671.5 L725 671.5 L725 671.5 L730 671.5 L730 671.5 L735 671.5 L735 671.5 L771.5 671.5 L771.5 671.5 L808 671.5 L808 671.5 L813 671.5 L813 671.5 L818 671.5 L818 671.5 L823 671.5 L823 671.5 L828 671.5 L828 671.5 L849.662976085031 399.75 L849.7 399.8 " fill="none"></path>
					<path d="M421.8 602.1 L420.6 602.6 L419.4 603.1 L419.3 599.5 Z"></path>
					<path d="M419.7 602.7 L449 687.5 L454 687.5 L454 687.5 L459 687.5 L459 687.5 L464 687.5 L464 687.5 L469 687.5 L469 687.5 L493.2191780821918 661.5 L493.2 661.5 " fill="none"></path>
					<path d="M421.0 602.2 L419.7 602.7 L418.5 603.1 L418.6 599.5 Z"></path>
					<path d="M618.3 530.9 L626 527.5 L631 527.5 L631 527.5 L636 527.5 L636 527.5 L641 527.5 L641 527.5 L646 527.5 L646 527.5 L680.5 527.5 L680.5 527.5 L715 527.5 L715 527.5 L720 527.5 L720 527.5 L725 527.5 L725 527.5 L730 527.5 L730 527.5 L735 527.5 L735 527.5 L771.5 527.5 L771.5 527.5 L808 527.5 L808 527.5 L813 527.5 L813 527.5 L818 527.5 L818 527.5 L823 527.5 L823 527.5 L828 527.5 L828 527.5 L848.7911392405064 399.75 L848.8 399.8 " fill="none"></path>
					<path d="M617.8 529.7 L618.3 530.9 L618.8 532.1 L615.3 532.3 Z"></path>
					<path d="M620.8 542.8 L626 542.75 L631 542.75 L631 542.75 L636 542.75 L636 542.75 L641 542.75 L641 542.75 L646 542.75 L646 542.75 L663 545.3369565217391 L663.0 545.3 " fill="none"></path>
					<path d="M620.8 541.4 L620.8 542.8 L620.8 544.1 L617.5 542.8 Z"></path>
					<path d="M620.7 551.6 L626 553.25 L631 553.25 L631 553.25 L636 553.25 L636 553.25 L641 553.25 L641 553.25 L646 553.25 L646 553.25 L663 550.6630434782609 L663.0 550.7 " fill="none"></path>
					<path d="M621.1 550.4 L620.7 551.6 L620.3 552.9 L617.5 550.7 Z"></path>
					<path d="M526.3 585.4 L537 583.75 L542 583.75 L542 583.75 L547 583.75 L547 583.75 L552 583.75 L552 583.75 L557 583.75 L557 583.75 L591.5 583.75 L591.5 583.75 L626 583.75 L626 583.75 L631 583.75 L631 583.75 L636 583.75 L636 583.75 L641 583.75 L641 583.75 L646 583.75 L646 583.75 L678.3722466960353 743.5 L678.4 743.5 " fill="none"></path>
					<path d="M526.1 584.1 L526.3 585.4 L526.5 586.7 L523.0 585.9 Z"></path>
					<path d="M515.1 601.9 L537 625.25 L542 625.25 L542 625.25 L547 625.25 L547 625.25 L552 625.25 L552 625.25 L557 625.25 L557 625.25 L591.5 625.25 L591.5 625.25 L626 625.25 L626 625.25 L631 625.25 L631 625.25 L636 625.25 L636 625.25 L641 625.25 L641 625.25 L646 625.25 L646 625.25 L675.8106796116505 558.5 L675.8 558.5 " fill="none"></path>
					<path d="M516.1 601.0 L515.1 601.9 L514.2 602.8 L512.8 599.5 Z"></path>
					<path d="M500.8 602.8 L469 804 L464 804 L464 804 L459 804 L459 804 L454 804 L454 804 L449 804 L449 804 L436.5 800.2316176470588 L436.5 800.2 " fill="none"></path>
					<path d="M502.1 603.0 L500.8 602.8 L499.5 602.6 L501.3 599.5 Z"></path>
					<path d="M436.0 781.6 L449 774 L454 774 L454 774 L459 774 L459 774 L464 774 L464 774 L469 774 L469 774 L503 774 L503 774 L537 774 L537 774 L542 774 L542 774 L547 774 L547 774 L552 774 L552 774 L557 774 L557 774 L591.5 774 L591.5 774 L626 774 L626 774 L631 774 L631 774 L636 774 L636 774 L641 774 L641 774 L646 774 L646 774 L678.8971238938053 558.5 L678.9 558.5 " fill="none"></path>
					<path d="M435.3 780.4 L436.0 781.6 L436.6 782.7 L433.1 783.3 Z"></path>
					<path d="M439.7 786.7 L449 784 L454 784 L454 784 L459 784 L459 784 L464 784 L464 784 L469 784 L469 784 L501.16923076923075 599.5 L501.2 599.5 " fill="none"></path>
					<path d="M439.3 785.4 L439.7 786.7 L440.1 787.9 L436.5 787.6 Z"></path>
					<path d="M439.8 793.9 L449 794 L454 794 L454 794 L459 794 L459 794 L464 794 L464 794 L469 794 L469 794 L501.25853658536585 599.5 L501.3 599.5 " fill="none"></path>
					<path d="M439.8 792.6 L439.8 793.9 L439.8 795.3 L436.5 793.9 Z"></path>
					<path d="M701.3 551.2 L715 553.25 L720 553.25 L720 553.25 L725 553.25 L725 553.25 L730 553.25 L730 553.25 L735 553.25 L735 553.25 L771.5 553.25 L771.5 553.25 L808 553.25 L808 553.25 L813 553.25 L813 553.25 L818 553.25 L818 553.25 L823 553.25 L823 553.25 L828 553.25 L828 553.25 L849.0594512195122 399.75 L849.1 399.8 " fill="none"></path>
					<path d="M701.5 549.8 L701.3 551.2 L701.1 552.5 L698.0 550.7 Z"></path>
					<path d="M804.3 128.0 L808 128 L813 128 L813 128 L818 128 L818 128 L823 128 L823 128 L828 128 L828 128 L849.5956937799043 378.75 L849.6 378.8 " fill="none"></path>
					<path d="M804.3 126.7 L804.3 128.0 L804.3 129.3 L801.0 128.0 Z"></path>
					<path d="M806.3 159.0 L808 159 L813 159 L813 159 L818 159 L818 159 L823 159 L823 159 L828 159 L828 159 L849.4739413680782 378.75 L849.5 378.8 " fill="none"></path>
					<path d="M806.3 157.7 L806.3 159.0 L806.3 160.3 L803.0 159.0 Z"></path>
					<path d="M800.8 190.0 L808 190 L813 190 L813 190 L818 190 L818 190 L823 190 L823 190 L828 190 L828 190 L849.3143036386449 378.75 L849.3 378.8 " fill="none"></path>
					<path d="M800.8 188.7 L800.8 190.0 L800.8 191.3 L797.5 190.0 Z"></path>
					<path d="M688.0 740.6 L715 692 L720 692 L720 692 L725 692 L725 692 L730 692 L730 692 L735 692 L735 692 L753.5 692 L753.5 692.0 " fill="none"></path>
					<path d="M686.8 739.9 L688.0 740.6 L689.1 741.2 L686.3 743.5 Z"></path>
					<path d="M694.7 741.3 L715 723 L720 723 L720 723 L725 723 L725 723 L730 723 L730 723 L735 723 L735 723 L751.5 723 L751.5 723.0 " fill="none"></path>
					<path d="M693.8 740.3 L694.7 741.3 L695.6 742.3 L692.2 743.5 Z"></path>
					<path d="M698.3 754.0 L715 754 L720 754 L720 754 L725 754 L725 754 L730 754 L730 754 L735 754 L735 754 L751.5 754 L751.5 754.0 " fill="none"></path>
					<path d="M698.3 752.7 L698.3 754.0 L698.3 755.3 L695.0 754.0 Z"></path>
					<path d="M694.7 766.7 L715 785 L720 785 L720 785 L725 785 L725 785 L730 785 L730 785 L735 785 L735 785 L751 785 L751.0 785.0 " fill="none"></path>
					<path d="M695.6 765.7 L694.7 766.7 L693.8 767.7 L692.2 764.5 Z"></path>
					<path d="M688.0 767.4 L715 816 L720 816 L720 816 L725 816 L725 816 L730 816 L730 816 L735 816 L735 816 L750.5 816 L750.5 816.0 " fill="none"></path>
					<path d="M689.1 766.8 L688.0 767.4 L686.8 768.1 L686.3 764.5 Z"></path>
					<path d="M792.8 692.0 L808 692 L813 692 L813 692 L818 692 L818 692 L823 692 L823 692 L828 692 L828 692 L849.7196531791908 399.75 L849.7 399.8 " fill="none"></path>
					<path d="M792.8 690.7 L792.8 692.0 L792.8 693.3 L789.5 692.0 Z"></path>
					<path d="M794.8 723.0 L808 723 L813 723 L813 723 L818 723 L818 723 L823 723 L823 723 L828 723 L828 723 L849.7921348314607 399.75 L849.8 399.8 " fill="none"></path>
					<path d="M794.8 721.7 L794.8 723.0 L794.8 724.3 L791.5 723.0 Z"></path>
					<path d="M794.8 754.0 L808 754 L813 754 L813 754 L818 754 L818 754 L823 754 L823 754 L828 754 L828 754 L849.8522960932145 399.75 L849.9 399.8 " fill="none"></path>
					<path d="M794.8 752.7 L794.8 754.0 L794.8 755.3 L791.5 754.0 Z"></path>
					<path d="M795.3 785.0 L808 785 L813 785 L813 785 L818 785 L818 785 L823 785 L823 785 L828 785 L828 785 L849.9030322173089 399.75 L849.9 399.8 " fill="none"></path>
					<path d="M795.3 783.7 L795.3 785.0 L795.3 786.3 L792.0 785.0 Z"></path>
					<path d="M795.8 816.0 L808 816 L813 816 L813 816 L818 816 L818 816 L823 816 L823 816 L828 816 L828 816 L849.9463971880492 399.75 L849.9 399.8 " fill="none"></path>
					<path d="M795.8 814.7 L795.8 816.0 L795.8 817.3 L792.5 816.0 Z"></path>
					<path d="M611.4 85.8 L626 76.75 L631 76.75 L631 76.75 L636 76.75 L636 76.75 L641 76.75 L641 76.75 L646 76.75 L646 76.75 L662 76.75 L662.0 76.8 " fill="none"></path>
					<path d="M610.7 84.6 L611.4 85.8 L612.1 86.9 L608.5 87.5 Z"></path>
					<path d="M598.5 111.5 L626 164 L631 164 L631 164 L636 164 L636 164 L641 164 L641 164 L646 164 L646 164 L680.5 164 L680.5 164 L715 164 L715 164 L720 164 L720 164 L725 164 L725 164 L730 164 L730 164 L735 164 L735 164 L765.7798507462686 107.5 L765.8 107.5 " fill="none"></path>
					<path d="M599.7 110.8 L598.5 111.5 L597.4 112.1 L597.0 108.5 Z"></path>
					<path d="M595.1 111.7 L626 231 L631 231 L631 231 L636 231 L636 231 L641 231 L641 231 L646 231 L646 231 L680.5 231 L680.5 231 L715 231 L715 231 L720 231 L720 231 L725 231 L725 231 L730 231 L730 231 L735 231 L735 231 L751.5 226.4794520547945 L751.5 226.5 " fill="none"></path>
					<path d="M596.4 111.4 L595.1 111.7 L593.8 112.1 L594.2 108.5 Z"></path>
					<path d="M702.2 70.0 L715 66 L720 66 L720 66 L725 66 L725 66 L730 66 L730 66 L735 66 L735 66 L752 66 L752.0 66.0 " fill="none"></path>
					<path d="M701.8 68.7 L702.2 70.0 L702.6 71.3 L699.0 71.0 Z"></path>
					<path d="M702.2 82.9 L715 86.5 L720 86.5 L720 86.5 L725 86.5 L725 86.5 L730 86.5 L730 86.5 L735 86.5 L735 86.5 L751.5 91.24657534246575 L751.5 91.2 " fill="none"></path>
					<path d="M702.6 81.6 L702.2 82.9 L701.8 84.2 L699.0 82.0 Z"></path>
					<path d="M686.6 90.3 L715 153.5 L720 153.5 L720 153.5 L725 153.5 L725 153.5 L730 153.5 L730 153.5 L735 153.5 L735 153.5 L765.8222222222222 210.5 L765.8 210.5 " fill="none"></path>
					<path d="M687.8 89.7 L686.6 90.3 L685.4 90.8 L685.2 87.3 Z"></path>
					<path d="M794.8 97.0 L808 97 L813 97 L813 97 L818 97 L818 97 L823 97 L823 97 L828 97 L828 97 L849.6916167664671 378.75 L849.7 378.8 " fill="none"></path>
					<path d="M794.8 95.7 L794.8 97.0 L794.8 98.3 L791.5 97.0 Z"></path>
					<path d="M794.8 221.0 L808 221 L813 221 L813 221 L818 221 L818 221 L823 221 L823 221 L828 221 L828 221 L849.095839524517 378.75 L849.1 378.8 " fill="none"></path>
					<path d="M794.8 219.7 L794.8 221.0 L794.8 222.3 L791.5 221.0 Z"></path>
					<path d="M789.3 302.5 L808 302.5 L813 302.5 L813 302.5 L818 302.5 L818 302.5 L823 302.5 L823 302.5 L828 302.5 L828 302.5 L847.7766570605187 378.75 L847.8 378.8 " fill="none"></path>
					<path d="M789.3 301.2 L789.3 302.5 L789.3 303.8 L786.0 302.5 Z"></path>
					<path d="M796.3 333.5 L808 333.5 L813 333.5 L813 333.5 L818 333.5 L818 333.5 L823 333.5 L823 333.5 L828 333.5 L828 333.5 L846.262331838565 378.75 L846.3 378.8 " fill="none"></path>
					<path d="M796.3 332.2 L796.3 333.5 L796.3 334.8 L793.0 333.5 Z"></path>
					<text x="627.0" y="248.5" stroke="none">choice-&gt;</text>
					<path d="M603.0 277.5 L626 256.5 L631 256.5 L631 256.5 L636 256.5 L636 256.5 L641 256.5 L641 256.5 L646 256.5 L646 256.5 L652 256.5 L652.0 256.5 " fill="none"></path>
					<text x="626.0" y="303.3" stroke="none">choice-&gt;</text>
					<path d="M613.5 290.7 L626 292.25 L631 292.25 L631 292.25 L636 292.25 L636 292.25 L641 292.25 L641 292.25 L646 292.25 L646 292.25 L651 292.25 L651.0 292.3 " fill="none"></path>
					<path d="M608.7 300.5 L626 313 L631 313 L631 313 L636 313 L636 313 L641 313 L641 313 L646 313 L646 313 L680.5 313 L680.5 313 L715 313 L715 313 L720 313 L720 313 L725 313 L725 313 L730 313 L730 313 L735 313 L735 313 L757 306.67123287671234 L757.0 306.7 " fill="none"></path>
					<path d="M609.5 299.4 L608.7 300.5 L607.9 301.5 L606.0 298.5 Z"></path>
					<path d="M601.5 301.2 L626 333.5 L631 333.5 L631 333.5 L636 333.5 L636 333.5 L641 333.5 L641 333.5 L646 333.5 L646 333.5 L680.5 333.5 L680.5 333.5 L715 333.5 L715 333.5 L720 333.5 L720 333.5 L725 333.5 L725 333.5 L730 333.5 L730 333.5 L735 333.5 L735 333.5 L750 333.5 L750.0 333.5 " fill="none"></path>
					<path d="M602.5 300.4 L601.5 301.2 L600.4 302.0 L599.5 298.5 Z"></path>
					<path d="M712.3 251.9 L715 251.5 L720 251.5 L720 251.5 L725 251.5 L725 251.5 L730 251.5 L730 251.5 L735 251.5 L735 251.5 L771.5 251.5 L771.5 251.5 L808 251.5 L808 251.5 L813 251.5 L813 251.5 L818 251.5 L818 251.5 L823 251.5 L823 251.5 L828 251.5 L828 251.5 L848.7849364791289 378.75 L848.8 378.8 " fill="none"></path>
					<path d="M712.1 250.6 L712.3 251.9 L712.5 253.2 L709.0 252.4 Z"></path>
					<path d="M712.3 261.1 L715 261.5 L720 261.5 L720 261.5 L725 261.5 L725 261.5 L730 261.5 L730 261.5 L735 261.5 L735 261.5 L762.1524390243902 292 L762.2 292.0 " fill="none"></path>
					<path d="M712.5 259.8 L712.3 261.1 L712.1 262.4 L709.0 260.6 Z"></path>
					<path d="M700.8 280.0 L715 271.5 L720 271.5 L720 271.5 L725 271.5 L725 271.5 L730 271.5 L730 271.5 L735 271.5 L735 271.5 L771.5 271.5 L771.5 271.5 L808 271.5 L808 271.5 L813 271.5 L813 271.5 L818 271.5 L818 271.5 L823 271.5 L823 271.5 L828 271.5 L828 271.5 L848.4936305732484 378.75 L848.5 378.8 " fill="none"></path>
					<path d="M700.1 278.9 L700.8 280.0 L701.5 281.2 L698.0 281.8 Z"></path>
					<path d="M713.3 292.3 L715 292.25 L720 292.25 L720 292.25 L725 292.25 L725 292.25 L730 292.25 L730 292.25 L735 292.25 L735 292.25 L757 298.42808219178085 L757.0 298.4 " fill="none"></path>
					<path d="M713.3 290.9 L713.3 292.3 L713.3 293.6 L710.0 292.3 Z"></path>
					<path d="M713.2 302.2 L715 302.75 L720 302.75 L720 302.75 L725 302.75 L725 302.75 L730 302.75 L730 302.75 L735 302.75 L735 302.75 L757 302.5993150684931 L757.0 302.6 " fill="none"></path>
					<path d="M713.6 300.9 L713.2 302.2 L712.8 303.5 L710.0 301.2 Z"></path>
					<path d="M790.3 445.0 L808 445 L813 445 L813 445 L818 445 L818 445 L823 445 L823 445 L828 445 L828 445 L846.262331838565 399.75 L846.3 399.8 " fill="none"></path>
					<path d="M790.3 443.7 L790.3 445.0 L790.3 446.3 L787.0 445.0 Z"></path>
					<g data-name="statement">
						<g fill="#eee8d5" stroke="#33322E" data-name="statement">
							<rect x="319.0" y="739.5" height="19.0" width="36.0" data-name="statement"></rect>
						</g>
						<g transform="translate(319, 739.5)" font-family="Fira Code" font-size="3pt" font-weight="bold" font-style="normal" data-name="statement">
							<g transform="translate(8, 8)" fill="#33322E" text-align="center" data-name="statement">
								<text x="10.0" y="3.0" stroke="none" text-anchor="middle" data-name="statement">statement</text>
								
							</g>
						</g>
					</g>
					<g data-name="variable_declaration">
						<g fill="#eee8d5" stroke="#33322E" data-name="variable_declaration">
							<rect x="475.0" y="502.5" height="19.0" width="56.0" data-name="variable_declaration"></rect>
						</g>
						<g transform="translate(475, 502.5)" font-family="Fira Code" font-size="3pt" font-weight="bold" font-style="normal" data-name="variable_declaration">
							<g transform="translate(8, 8)" fill="#33322E" text-align="center" data-name="variable_declaration">
								<text x="20.0" y="3.0" stroke="none" text-anchor="middle" data-name="variable_declaration">variable_declaration</text>
								
							</g>
						</g>
					</g>
					<g data-name="variable_reassignment">
						<g fill="#eee8d5" stroke="#33322E" data-name="variable_reassignment">
							<rect x="1.0" y="814.8" height="19.0" width="61.0" data-name="variable_reassignment"></rect>
						</g>
						<g transform="translate(1, 814.75)" font-family="Fira Code" font-size="3pt" font-weight="bold" font-style="normal" data-name="variable_reassignment">
							<g transform="translate(8, 8)" fill="#33322E" text-align="center" data-name="variable_reassignment">
								<text x="22.5" y="3.0" stroke="none" text-anchor="middle" data-name="variable_reassignment">variable_reassignment</text>
								
							</g>
						</g>
					</g>
					<g data-name="function_declaration">
						<g fill="#eee8d5" stroke="#33322E" data-name="function_declaration">
							<rect x="387.0" y="744.3" height="19.0" width="56.0" data-name="function_declaration"></rect>
						</g>
						<g transform="translate(387, 744.25)" font-family="Fira Code" font-size="3pt" font-weight="bold" font-style="normal" data-name="function_declaration">
							<g transform="translate(8, 8)" fill="#33322E" text-align="center" data-name="function_declaration">
								<text x="20.0" y="3.0" stroke="none" text-anchor="middle" data-name="function_declaration">function_declaration</text>
								
							</g>
						</g>
					</g>
					<g data-name="function_call">
						<g fill="#eee8d5" stroke="#33322E" data-name="function_call">
							<rect x="394.5" y="784.3" height="19.0" width="41.0" data-name="function_call"></rect>
						</g>
						<g transform="translate(394.5, 784.25)" font-family="Fira Code" font-size="3pt" font-weight="bold" font-style="normal" data-name="function_call">
							<g transform="translate(8, 8)" fill="#33322E" text-align="center" data-name="function_call">
								<text x="12.5" y="3.0" stroke="none" text-anchor="middle" data-name="function_call">function_call</text>
								
							</g>
						</g>
					</g>
					<g data-name="structure">
						<g fill="#eee8d5" stroke="#33322E" data-name="structure">
							<rect x="94.0" y="466.5" height="19.0" width="34.0" data-name="structure"></rect>
						</g>
						<g transform="translate(94, 466.5)" font-family="Fira Code" font-size="3pt" font-weight="bold" font-style="normal" data-name="structure">
							<g transform="translate(8, 8)" fill="#33322E" text-align="center" data-name="structure">
								<text x="9.0" y="3.0" stroke="none" text-anchor="middle" data-name="structure">structure</text>
								
							</g>
						</g>
					</g>
					<g data-name="variable_initialization">
						<g fill="#eee8d5" stroke="#33322E" data-name="variable_initialization">
							<rect x="2.5" y="1.0" height="19.0" width="58.0" data-name="variable_initialization"></rect>
						</g>
						<g transform="translate(2.5, 1)" font-family="Fira Code" font-size="3pt" font-weight="bold" font-style="normal" data-name="variable_initialization">
							<g transform="translate(8, 8)" fill="#33322E" text-align="center" data-name="variable_initialization">
								<text x="21.0" y="3.0" stroke="none" text-anchor="middle" data-name="variable_initialization">variable_initialization</text>
								
							</g>
						</g>
					</g>
					<g data-name="expression">
						<g fill="#eee8d5" stroke="#33322E" data-name="expression">
							<rect x="484.0" y="579.5" height="19.0" width="38.0" data-name="expression"></rect>
						</g>
						<g transform="translate(484, 579.5)" font-family="Fira Code" font-size="3pt" font-weight="bold" font-style="normal" data-name="expression">
							<g transform="translate(8, 8)" fill="#33322E" text-align="center" data-name="expression">
								<text x="11.0" y="3.0" stroke="none" text-anchor="middle" data-name="expression">expression</text>
								
							</g>
						</g>
					</g>
					<g data-name="declaration_mode">
						<g fill="#eee8d5" stroke="#33322E" data-name="declaration_mode">
							<rect x="745.5" y="466.5" height="19.0" width="52.0" data-name="declaration_mode"></rect>
						</g>
						<g transform="translate(745.5, 466.5)" font-family="Fira Code" font-size="3pt" font-weight="bold" font-style="normal" data-name="declaration_mode">
							<g transform="translate(8, 8)" fill="#33322E" text-align="center" data-name="declaration_mode">
								<text x="18.0" y="3.0" stroke="none" text-anchor="middle" data-name="declaration_mode">declaration_mode</text>
								
							</g>
						</g>
					</g>
					<g data-name="type">
						<g fill="#eee8d5" stroke="#33322E" data-name="type">
							<rect x="759.0" y="497.5" height="19.0" width="25.0" data-name="type"></rect>
						</g>
						<g transform="translate(759, 497.5)" font-family="Fira Code" font-size="3pt" font-weight="bold" font-style="normal" data-name="type">
							<g transform="translate(8, 8)" fill="#33322E" text-align="center" data-name="type">
								<text x="4.5" y="3.0" stroke="none" text-anchor="middle" data-name="type">type</text>
								
							</g>
						</g>
					</g>
					<g data-name="identifier">
						<g fill="#eee8d5" stroke="#33322E" data-name="identifier">
							<rect x="664.0" y="538.5" height="19.0" width="33.0" data-name="identifier"></rect>
						</g>
						<g transform="translate(664, 538.5)" font-family="Fira Code" font-size="3pt" font-weight="bold" font-style="normal" data-name="identifier">
							<g transform="translate(8, 8)" fill="#33322E" text-align="center" data-name="identifier">
								<text x="8.5" y="3.0" stroke="none" text-anchor="middle" data-name="identifier">identifier</text>
								
							</g>
						</g>
					</g>
					<g data-name="tuple_declaration">
						<g fill="#eee8d5" stroke="#33322E" data-name="tuple_declaration">
							<rect x="566.5" y="533.3" height="19.0" width="50.0" data-name="tuple_declaration"></rect>
						</g>
						<g transform="translate(566.5, 533.25)" font-family="Fira Code" font-size="3pt" font-weight="bold" font-style="normal" data-name="tuple_declaration">
							<g transform="translate(8, 8)" fill="#33322E" text-align="center" data-name="tuple_declaration">
								<text x="17.0" y="3.0" stroke="none" text-anchor="middle" data-name="tuple_declaration">tuple_declaration</text>
								
							</g>
						</g>
					</g>
					<g data-name=".terminal">
						<g fill="#eee8d5" stroke="#33322E" data-name=".terminal">
							<rect x="834.0" y="379.8" height="19.0" width="33.0" data-name=".terminal"></rect>
						</g>
						<g transform="translate(834, 379.75)" font-family="Fira Code" font-size="3pt" font-weight="bold" font-style="normal" data-name=".terminal">
							<g transform="translate(8, 8)" fill="#33322E" text-align="center" data-name=".terminal">
								<text x="8.5" y="3.0" stroke="none" text-anchor="middle" data-name=".terminal">.terminal</text>
								
							</g>
						</g>
					</g>
					<g data-name="parameter_list">
						<g fill="#eee8d5" stroke="#33322E" data-name="parameter_list">
							<rect x="481.0" y="734.5" height="19.0" width="44.0" data-name="parameter_list"></rect>
						</g>
						<g transform="translate(481, 734.5)" font-family="Fira Code" font-size="3pt" font-weight="bold" font-style="normal" data-name="parameter_list">
							<g transform="translate(8, 8)" fill="#33322E" text-align="center" data-name="parameter_list">
								<text x="14.0" y="3.0" stroke="none" text-anchor="middle" data-name="parameter_list">parameter_list</text>
								
							</g>
						</g>
					</g>
					<g data-name="local_block">
						<g fill="#eee8d5" stroke="#33322E" data-name="local_block">
							<rect x="484.0" y="538.5" height="19.0" width="38.0" data-name="local_block"></rect>
						</g>
						<g transform="translate(484, 538.5)" font-family="Fira Code" font-size="3pt" font-weight="bold" font-style="normal" data-name="local_block">
							<g transform="translate(8, 8)" fill="#33322E" text-align="center" data-name="local_block">
								<text x="11.0" y="3.0" stroke="none" text-anchor="middle" data-name="local_block">local_block</text>
								
							</g>
						</g>
					</g>
					<g data-name="return_value">
						<g fill="#eee8d5" stroke="#33322E" data-name="return_value">
							<rect x="482.5" y="610.5" height="19.0" width="41.0" data-name="return_value"></rect>
						</g>
						<g transform="translate(482.5, 610.5)" font-family="Fira Code" font-size="3pt" font-weight="bold" font-style="normal" data-name="return_value">
							<g transform="translate(8, 8)" fill="#33322E" text-align="center" data-name="return_value">
								<text x="12.5" y="3.0" stroke="none" text-anchor="middle" data-name="return_value">return_value</text>
								
							</g>
						</g>
					</g>
					<g data-name="parameter_definition">
						<g fill="#eee8d5" stroke="#33322E" data-name="parameter_definition">
							<rect x="563.0" y="734.5" height="19.0" width="57.0" data-name="parameter_definition"></rect>
						</g>
						<g transform="translate(563, 734.5)" font-family="Fira Code" font-size="3pt" font-weight="bold" font-style="normal" data-name="parameter_definition">
							<g transform="translate(8, 8)" fill="#33322E" text-align="center" data-name="parameter_definition">
								<text x="20.5" y="3.0" stroke="none" text-anchor="middle" data-name="parameter_definition">parameter_definition</text>
								
							</g>
						</g>
					</g>
					<g data-name="literal">
						<g fill="#eee8d5" stroke="#33322E" data-name="literal">
							<rect x="667.0" y="744.5" height="19.0" width="27.0" data-name="literal"></rect>
						</g>
						<g transform="translate(667, 744.5)" font-family="Fira Code" font-size="3pt" font-weight="bold" font-style="normal" data-name="literal">
							<g transform="translate(8, 8)" fill="#33322E" text-align="center" data-name="literal">
								<text x="5.5" y="3.0" stroke="none" text-anchor="middle" data-name="literal">literal</text>
								
							</g>
						</g>
					</g>
					<g data-name="if_structure">
						<g fill="#eee8d5" stroke="#33322E" data-name="if_structure">
							<rect x="396.0" y="47.0" height="19.0" width="38.0" data-name="if_structure"></rect>
						</g>
						<g transform="translate(396, 47)" font-family="Fira Code" font-size="3pt" font-weight="bold" font-style="normal" data-name="if_structure">
							<g transform="translate(8, 8)" fill="#33322E" text-align="center" data-name="if_structure">
								<text x="11.0" y="3.0" stroke="none" text-anchor="middle" data-name="if_structure">if_structure</text>
								
							</g>
						</g>
					</g>
					<g data-name="for_structure">
						<g fill="#eee8d5" stroke="#33322E" data-name="for_structure">
							<rect x="162.5" y="370.8" height="19.0" width="41.0" data-name="for_structure"></rect>
						</g>
						<g transform="translate(162.5, 370.75)" font-family="Fira Code" font-size="3pt" font-weight="bold" font-style="normal" data-name="for_structure">
							<g transform="translate(8, 8)" fill="#33322E" text-align="center" data-name="for_structure">
								<text x="12.5" y="3.0" stroke="none" text-anchor="middle" data-name="for_structure">for_structure</text>
								
							</g>
						</g>
					</g>
					<g data-name="while_structure">
						<g fill="#eee8d5" stroke="#33322E" data-name="while_structure">
							<rect x="160.0" y="462.0" height="19.0" width="46.0" data-name="while_structure"></rect>
						</g>
						<g transform="translate(160, 462)" font-family="Fira Code" font-size="3pt" font-weight="bold" font-style="normal" data-name="while_structure">
							<g transform="translate(8, 8)" fill="#33322E" text-align="center" data-name="while_structure">
								<text x="15.0" y="3.0" stroke="none" text-anchor="middle" data-name="while_structure">while_structure</text>
								
							</g>
						</g>
					</g>
					<g data-name="switch_structure">
						<g fill="#eee8d5" stroke="#33322E" data-name="switch_structure">
							<rect x="391.0" y="579.5" height="19.0" width="48.0" data-name="switch_structure"></rect>
						</g>
						<g transform="translate(391, 579.5)" font-family="Fira Code" font-size="3pt" font-weight="bold" font-style="normal" data-name="switch_structure">
							<g transform="translate(8, 8)" fill="#33322E" text-align="center" data-name="switch_structure">
								<text x="16.0" y="3.0" stroke="none" text-anchor="middle" data-name="switch_structure">switch_structure</text>
								
							</g>
						</g>
					</g>
					<g data-name="name">
						<g fill="#eee8d5" stroke="#33322E" data-name="name">
							<rect x="758.0" y="293.0" height="19.0" width="27.0" data-name="name"></rect>
						</g>
						<g transform="translate(758, 293)" font-family="Fira Code" font-size="3pt" font-weight="bold" font-style="normal" data-name="name">
							<g transform="translate(8, 8)" fill="#33322E" text-align="center" data-name="name">
								<text x="5.5" y="3.0" stroke="none" text-anchor="middle" data-name="name">name</text>
								
							</g>
						</g>
					</g>
					<g data-name="local_block_loop">
						<g fill="#eee8d5" stroke="#33322E" data-name="local_block_loop">
							<rect x="238.0" y="415.0" height="19.0" width="49.0" data-name="local_block_loop"></rect>
						</g>
						<g transform="translate(238, 415)" font-family="Fira Code" font-size="3pt" font-weight="bold" font-style="normal" data-name="local_block_loop">
							<g transform="translate(8, 8)" fill="#33322E" text-align="center" data-name="local_block_loop">
								<text x="16.5" y="3.0" stroke="none" text-anchor="middle" data-name="local_block_loop">local_block_loop</text>
								
							</g>
						</g>
					</g>
					<g data-name="block">
						<g fill="#eee8d5" stroke="#33322E" data-name="block">
							<rect x="489.5" y="641.5" height="19.0" width="27.0" data-name="block"></rect>
						</g>
						<g transform="translate(489.5, 641.5)" font-family="Fira Code" font-size="3pt" font-weight="bold" font-style="normal" data-name="block">
							<g transform="translate(8, 8)" fill="#33322E" text-align="center" data-name="block">
								<text x="5.5" y="3.0" stroke="none" text-anchor="middle" data-name="block">block</text>
								
							</g>
						</g>
					</g>
					<g data-name="arithmetic_operators">
						<g fill="#eee8d5" stroke="#33322E" data-name="arithmetic_operators">
							<rect x="743.0" y="118.5" height="19.0" width="57.0" data-name="arithmetic_operators"></rect>
						</g>
						<g transform="translate(743, 118.5)" font-family="Fira Code" font-size="3pt" font-weight="bold" font-style="normal" data-name="arithmetic_operators">
							<g transform="translate(8, 8)" fill="#33322E" text-align="center" data-name="arithmetic_operators">
								<text x="20.5" y="3.0" stroke="none" text-anchor="middle" data-name="arithmetic_operators">arithmetic_operators</text>
								
							</g>
						</g>
					</g>
					<g data-name="comparison_operators">
						<g fill="#eee8d5" stroke="#33322E" data-name="comparison_operators">
							<rect x="741.0" y="149.5" height="19.0" width="61.0" data-name="comparison_operators"></rect>
						</g>
						<g transform="translate(741, 149.5)" font-family="Fira Code" font-size="3pt" font-weight="bold" font-style="normal" data-name="comparison_operators">
							<g transform="translate(8, 8)" fill="#33322E" text-align="center" data-name="comparison_operators">
								<text x="22.5" y="3.0" stroke="none" text-anchor="middle" data-name="comparison_operators">comparison_operators</text>
								
							</g>
						</g>
					</g>
					<g data-name="logical_operators">
						<g fill="#eee8d5" stroke="#33322E" data-name="logical_operators">
							<rect x="746.5" y="180.5" height="19.0" width="50.0" data-name="logical_operators"></rect>
						</g>
						<g transform="translate(746.5, 180.5)" font-family="Fira Code" font-size="3pt" font-weight="bold" font-style="normal" data-name="logical_operators">
							<g transform="translate(8, 8)" fill="#33322E" text-align="center" data-name="logical_operators">
								<text x="17.0" y="3.0" stroke="none" text-anchor="middle" data-name="logical_operators">logical_operators</text>
								
							</g>
						</g>
					</g>
					<g data-name="literal_int">
						<g fill="#eee8d5" stroke="#33322E" data-name="literal_int">
							<rect x="754.5" y="682.5" height="19.0" width="34.0" data-name="literal_int"></rect>
						</g>
						<g transform="translate(754.5, 682.5)" font-family="Fira Code" font-size="3pt" font-weight="bold" font-style="normal" data-name="literal_int">
							<g transform="translate(8, 8)" fill="#33322E" text-align="center" data-name="literal_int">
								<text x="9.0" y="3.0" stroke="none" text-anchor="middle" data-name="literal_int">literal_int</text>
								
							</g>
						</g>
					</g>
					<g data-name="literal_float">
						<g fill="#eee8d5" stroke="#33322E" data-name="literal_float">
							<rect x="752.5" y="713.5" height="19.0" width="38.0" data-name="literal_float"></rect>
						</g>
						<g transform="translate(752.5, 713.5)" font-family="Fira Code" font-size="3pt" font-weight="bold" font-style="normal" data-name="literal_float">
							<g transform="translate(8, 8)" fill="#33322E" text-align="center" data-name="literal_float">
								<text x="11.0" y="3.0" stroke="none" text-anchor="middle" data-name="literal_float">literal_float</text>
								
							</g>
						</g>
					</g>
					<g data-name="literal_bool">
						<g fill="#eee8d5" stroke="#33322E" data-name="literal_bool">
							<rect x="752.5" y="744.5" height="19.0" width="38.0" data-name="literal_bool"></rect>
						</g>
						<g transform="translate(752.5, 744.5)" font-family="Fira Code" font-size="3pt" font-weight="bold" font-style="normal" data-name="literal_bool">
							<g transform="translate(8, 8)" fill="#33322E" text-align="center" data-name="literal_bool">
								<text x="11.0" y="3.0" stroke="none" text-anchor="middle" data-name="literal_bool">literal_bool</text>
								
							</g>
						</g>
					</g>
					<g data-name="literal_color">
						<g fill="#eee8d5" stroke="#33322E" data-name="literal_color">
							<rect x="752.0" y="775.5" height="19.0" width="39.0" data-name="literal_color"></rect>
						</g>
						<g transform="translate(752, 775.5)" font-family="Fira Code" font-size="3pt" font-weight="bold" font-style="normal" data-name="literal_color">
							<g transform="translate(8, 8)" fill="#33322E" text-align="center" data-name="literal_color">
								<text x="11.5" y="3.0" stroke="none" text-anchor="middle" data-name="literal_color">literal_color</text>
								
							</g>
						</g>
					</g>
					<g data-name="literal_string">
						<g fill="#eee8d5" stroke="#33322E" data-name="literal_string">
							<rect x="751.5" y="806.5" height="19.0" width="40.0" data-name="literal_string"></rect>
						</g>
						<g transform="translate(751.5, 806.5)" font-family="Fira Code" font-size="3pt" font-weight="bold" font-style="normal" data-name="literal_string">
							<g transform="translate(8, 8)" fill="#33322E" text-align="center" data-name="literal_string">
								<text x="12.0" y="3.0" stroke="none" text-anchor="middle" data-name="literal_string">literal_string</text>
								
							</g>
						</g>
					</g>
					<g data-name="characters">
						<g fill="#eee8d5" stroke="#33322E" data-name="characters">
							<rect x="573.0" y="88.5" height="19.0" width="37.0" data-name="characters"></rect>
						</g>
						<g transform="translate(573, 88.5)" font-family="Fira Code" font-size="3pt" font-weight="bold" font-style="normal" data-name="characters">
							<g transform="translate(8, 8)" fill="#33322E" text-align="center" data-name="characters">
								<text x="10.5" y="3.0" stroke="none" text-anchor="middle" data-name="characters">characters</text>
								
							</g>
						</g>
					</g>
					<g data-name="character">
						<g fill="#eee8d5" stroke="#33322E" data-name="character">
							<rect x="663.0" y="67.3" height="19.0" width="35.0" data-name="character"></rect>
						</g>
						<g transform="translate(663, 67.25)" font-family="Fira Code" font-size="3pt" font-weight="bold" font-style="normal" data-name="character">
							<g transform="translate(8, 8)" fill="#33322E" text-align="center" data-name="character">
								<text x="9.5" y="3.0" stroke="none" text-anchor="middle" data-name="character">character</text>
								
							</g>
						</g>
					</g>
					<g data-name="escape_dq">
						<g fill="#eee8d5" stroke="#33322E" data-name="escape_dq">
							<rect x="752.5" y="87.5" height="19.0" width="38.0" data-name="escape_dq"></rect>
						</g>
						<g transform="translate(752.5, 87.5)" font-family="Fira Code" font-size="3pt" font-weight="bold" font-style="normal" data-name="escape_dq">
							<g transform="translate(8, 8)" fill="#33322E" text-align="center" data-name="escape_dq">
								<text x="11.0" y="3.0" stroke="none" text-anchor="middle" data-name="escape_dq">escape_dq</text>
								
							</g>
						</g>
					</g>
					<g data-name="escape_sq">
						<g fill="#eee8d5" stroke="#33322E" data-name="escape_sq">
							<rect x="752.5" y="211.5" height="19.0" width="38.0" data-name="escape_sq"></rect>
						</g>
						<g transform="translate(752.5, 211.5)" font-family="Fira Code" font-size="3pt" font-weight="bold" font-style="normal" data-name="escape_sq">
							<g transform="translate(8, 8)" fill="#33322E" text-align="center" data-name="escape_sq">
								<text x="11.0" y="3.0" stroke="none" text-anchor="middle" data-name="escape_sq">escape_sq</text>
								
							</g>
						</g>
					</g>
					<g data-name="non_quote">
						<g fill="#eee8d5" stroke="#33322E" data-name="non_quote">
							<rect x="753.0" y="56.5" height="19.0" width="37.0" data-name="non_quote"></rect>
						</g>
						<g transform="translate(753, 56.5)" font-family="Fira Code" font-size="3pt" font-weight="bold" font-style="normal" data-name="non_quote">
							<g transform="translate(8, 8)" fill="#33322E" text-align="center" data-name="non_quote">
								<text x="10.5" y="3.0" stroke="none" text-anchor="middle" data-name="non_quote">non_quote</text>
								
							</g>
						</g>
					</g>
					<g data-name="built_in_type">
						<g fill="#eee8d5" stroke="#33322E" data-name="built_in_type">
							<rect x="751.0" y="324.0" height="19.0" width="41.0" data-name="built_in_type"></rect>
						</g>
						<g transform="translate(751, 324)" font-family="Fira Code" font-size="3pt" font-weight="bold" font-style="normal" data-name="built_in_type">
							<g transform="translate(8, 8)" fill="#33322E" text-align="center" data-name="built_in_type">
								<text x="12.5" y="3.0" stroke="none" text-anchor="middle" data-name="built_in_type">built_in_type</text>
								
							</g>
						</g>
					</g>
					<g data-name="storage_type">
						<g fill="#eee8d5" stroke="#33322E" data-name="storage_type">
							<rect x="570.5" y="278.5" height="19.0" width="42.0" data-name="storage_type"></rect>
						</g>
						<g transform="translate(570.5, 278.5)" font-family="Fira Code" font-size="3pt" font-weight="bold" font-style="normal" data-name="storage_type">
							<g transform="translate(8, 8)" fill="#33322E" text-align="center" data-name="storage_type">
								<text x="13.0" y="3.0" stroke="none" text-anchor="middle" data-name="storage_type">storage_type</text>
								
							</g>
						</g>
					</g>
					<g data-name="array_storage_type">
						<g fill="#eee8d5" stroke="#33322E" data-name="array_storage_type">
							<rect x="653.0" y="247.0" height="19.0" width="55.0" data-name="array_storage_type"></rect>
						</g>
						<g transform="translate(653, 247)" font-family="Fira Code" font-size="3pt" font-weight="bold" font-style="normal" data-name="array_storage_type">
							<g transform="translate(8, 8)" fill="#33322E" text-align="center" data-name="array_storage_type">
								<text x="19.5" y="3.0" stroke="none" text-anchor="middle" data-name="array_storage_type">array_storage_type</text>
								
							</g>
						</g>
					</g>
					<g data-name="matrix_storage_type">
						<g fill="#eee8d5" stroke="#33322E" data-name="matrix_storage_type">
							<rect x="652.0" y="282.8" height="19.0" width="57.0" data-name="matrix_storage_type"></rect>
						</g>
						<g transform="translate(652, 282.75)" font-family="Fira Code" font-size="3pt" font-weight="bold" font-style="normal" data-name="matrix_storage_type">
							<g transform="translate(8, 8)" fill="#33322E" text-align="center" data-name="matrix_storage_type">
								<text x="20.5" y="3.0" stroke="none" text-anchor="middle" data-name="matrix_storage_type">matrix_storage_type</text>
								
							</g>
						</g>
					</g>
					<g data-name="assign">
						<g fill="#eee8d5" stroke="#33322E" data-name="assign">
							<rect x="757.0" y="435.5" height="19.0" width="29.0" data-name="assign"></rect>
						</g>
						<g transform="translate(757, 435.5)" font-family="Fira Code" font-size="3pt" font-weight="bold" font-style="normal" data-name="assign">
							<g transform="translate(8, 8)" fill="#33322E" text-align="center" data-name="assign">
								<text x="6.5" y="3.0" stroke="none" text-anchor="middle" data-name="assign">assign</text>
								
							</g>
						</g>
					</g>
				</g>
			</g>
		</g>
	</g>
</svg>